<?xml version="1.0" encoding="UTF-8" standalone="no"?>
<!DOCTYPE svg PUBLIC "-//W3C//DTD SVG 1.1//EN" "http://www.w3.org/Graphics/SVG/1.1/DTD/svg11.dtd">
<svg width="100%" height="100%" viewBox="0 0 512 512" version="1.1" xmlns="http://www.w3.org/2000/svg" xmlns:xlink="http://www.w3.org/1999/xlink" xml:space="preserve" xmlns:serif="http://www.serif.com/" style="fill-rule:evenodd;clip-rule:evenodd;stroke-linejoin:round;stroke-miterlimit:2;">
    <g transform="matrix(5.80762,0,0,5.80762,92.1219,0)">
        <path d="M54.79,33.28L52,34.49C37.39,40.81 26.85,51.58 21.52,65.64L20.83,67.45L20.14,65.28C18.493,60.11 17.357,54.792 16.75,49.4L16.75,49.22L16.85,49.08C23.85,38.83 36.45,33.08 51.39,33.24L54.79,33.28Z" style="fill:rgb(90,1,1);fill-rule:nonzero;"/>
        <path d="M26,45.2C24.145,49.642 22.835,54.293 22.1,59.05C21.74,61.335 21.506,63.639 21.4,65.95L21.52,65.64C26.85,51.58 37.39,40.81 52,34.49L54.79,33.28L51.36,33.28C43.855,33.075 36.411,34.695 29.67,38C28.274,40.308 27.048,42.715 26,45.2Z" style="fill:rgb(90,1,1);fill-rule:nonzero;"/>
        <path d="M17.78,52.43C17.72,53.43 17.69,54.43 17.67,55.52C18.305,58.818 19.129,62.077 20.14,65.28L20.83,67.45L21.4,66C21.506,63.689 21.74,61.385 22.1,59.1C22.831,54.326 24.141,49.658 26,45.2C27.045,42.715 28.268,40.309 29.66,38C25.271,40.189 21.398,43.288 18.3,47.09C18.06,48.84 17.88,50.62 17.78,52.43Z" style="fill-opacity:0.25;fill-rule:nonzero;"/>
        <path d="M56.42,9.39L52.16,11.5C41.405,16.704 32.628,25.267 27.16,35.89C25.928,38.307 24.872,40.811 24,43.38C22.48,47.945 21.513,52.675 21.12,57.47C20.407,67.418 21.668,77.41 24.83,86.87L25.24,88.16L23.9,87.4L22.42,86.54L22,86.32L21.88,86.06C18.281,78.656 15.691,70.802 14.18,62.71C13.45,58.676 13.055,54.589 13,50.49C12.803,42.498 14.161,34.543 17,27.07L17,26.99L17.07,26.92C25.81,18.4 37.66,12.64 51.32,10.27L56.42,9.39Z" style="fill:rgb(149,4,4);fill-rule:nonzero;"/>
        <path d="M17.53,63.22C16.8,59.26 16.398,55.246 16.33,51.22C16.164,43.367 17.523,35.556 20.33,28.22C20.983,26.441 21.731,24.699 22.57,23C22.78,22.58 23,22.17 23.23,21.75C21.074,23.313 19.032,25.027 17.12,26.88L17.05,26.95L17.05,27.03C14.211,34.503 12.853,42.458 13.05,50.45C13.122,54.55 13.533,58.638 14.28,62.67C15.726,70.412 18.166,77.934 21.54,85.05C22.44,85.64 23.19,86.44 24.11,86.99L25.29,88.12L24.88,86.83C24.01,84.12 23.29,81.44 22.71,78.77C20.415,73.794 18.678,68.579 17.53,63.22Z" style="fill:rgb(136,255,0);fill-opacity:0.25;fill-rule:nonzero;"/>
        <path d="M23.23,21.79C23,22.21 22.78,22.62 22.57,23.04C22.114,23.929 21.684,24.831 21.279,25.744C20.93,26.531 20.6,27.327 20.29,28.13C19.494,30.21 18.814,32.329 18.253,34.476C16.83,39.916 16.167,45.537 16.29,51.18C16.358,55.206 16.76,59.22 17.49,63.18C18.616,68.55 20.333,73.778 22.61,78.77C21.039,71.773 20.52,64.58 21.07,57.43C21.483,52.647 22.466,47.93 24,43.38C24.865,40.811 25.915,38.308 27.14,35.89C32.608,25.267 41.385,16.704 52.14,11.5L56.4,9.39L51.35,10.27C41.22,11.91 31.599,15.852 23.23,21.79Z" style="fill:rgb(227,156,6);fill-rule:nonzero;"/>
        <path d="M41.94,0L37.31,3.33C30.284,8.354 24.572,14.999 20.66,22.7C19.817,24.357 19.059,26.056 18.39,27.79C17.716,29.551 17.126,31.339 16.62,33.148C15.013,38.894 14.259,44.855 14.39,50.84C14.467,54.866 14.872,58.879 15.6,62.84C16.98,70.47 20.77,78.84 24.42,86.5L25.2,88.12L22.28,86.43C16.738,83.111 11.609,79.147 7,74.62C6.34,74 5.7,73.36 5.08,72.7L4.86,72.48C3.266,70.947 2.039,69.074 1.27,67C0.719,65.501 0.383,63.933 0.27,62.34C-0.75,50.12 1.3,38.91 6.35,29C12.644,16.626 23.353,7.049 36.35,2.17L41.94,0Z" style="fill:rgb(209,6,6);fill-rule:nonzero;"/>
    </g>
</svg>
